<?xml version="1.0" encoding="utf-8"?>
<!-- Generator: Adobe Illustrator 15.0.1, SVG Export Plug-In . SVG Version: 6.00 Build 0)  -->
<!DOCTYPE svg PUBLIC "-//W3C//DTD SVG 1.1//EN" "http://www.w3.org/Graphics/SVG/1.1/DTD/svg11.dtd">
<svg version="1.1" id="Layer_1" xmlns="http://www.w3.org/2000/svg" xmlns:xlink="http://www.w3.org/1999/xlink" x="0px" y="0px"
	 width="396px" height="176px" viewBox="0 0 396 176" enable-background="new 0 0 396 176" xml:space="preserve">
<g>
	<g>
		<g>
			<path fill="#3F70B0" stroke="#D8742D" stroke-width="3" stroke-miterlimit="10" d="M30.683,161.018v-57.213
				c0-15.345,3.926-27.148,11.668-35.083c6.756-6.923,16.284-10.583,27.554-10.583c20.994,0,36.825,16.41,36.825,38.171
				c0,21.417-14.218,36.375-34.576,36.375c-1.062,0-2.039-0.012-2.949-0.035v-24.446c0.034,0,0.067,0,0.101,0
				c0.861,0,1.736-0.092,2.602-0.273c4.98-1.039,10.342-5.4,10.342-12.519c0-7.293-5.371-12.792-12.493-12.792
				c-6.329,0-13.092,3.99-13.092,15.19v63.208L30.683,161.018z"/>
		</g>
	</g>
	<g>
		<g>
			<path fill="#3F70B0" stroke="#D8742D" stroke-width="3" stroke-miterlimit="10" d="M154.694,161.018l-2-57.213
				c0-15.345,3.926-27.148,11.668-35.083c6.755-6.923,16.283-10.583,27.554-10.583c20.994,0,36.825,16.41,36.825,38.172
				c0,21.417-14.218,36.375-34.576,36.375c-1.062,0-2.039-0.012-2.949-0.035v-24.446c0.034,0,0.067,0,0.101,0
				c0.861,0,1.736-0.092,2.602-0.273c4.98-1.039,10.342-5.4,10.342-12.519c0-7.293-5.371-12.792-12.493-12.792
				c-6.329,0-13.092,3.99-13.092,15.19v63.208H154.694z"/>
		</g>
	</g>
	
		<rect x="115.864" y="61.271" fill="#3F70B0" stroke="#D8742D" stroke-width="3" stroke-miterlimit="10" width="27.007" height="70.581"/>
	<path fill="#3F70B0" stroke="#D8742D" stroke-width="3" stroke-miterlimit="10" d="M275.093,133.625
		c-23.314,0-38.979-14.73-38.979-36.654v-0.273c0-21.556,15.301-37.201,36.383-37.201c23.038,0,36.791,14.622,36.791,39.113
		c0,1.744,0.018,1.514-0.032,3.191h-48.821l0.877,2.633c2.402,7.204,8.222,11.336,15.966,11.336c5.464,0,10.242-2.164,15.307-6.977
		l13.7,10.894C298.409,129.062,288.184,133.625,275.093,133.625z M272.636,76.94c-6.171,0-10.699,4.952-11.816,12.922L260.5,92.14
		h24.716l-0.21-2.191C284.247,82.046,279.392,76.94,272.636,76.94z"/>
	<path fill="#3F70B0" stroke="#D8742D" stroke-width="3" stroke-miterlimit="10" d="M348.87,133.625
		c-13.313,0-25.554-3.253-35.537-9.426l8.5-14.241c8.444,4.839,18.139,7.588,26.899,7.588c5.377,0,6.506-2.425,6.506-4.459v-0.273
		c0-3.305-3.326-4.513-10.384-6.308c-19.207-4.732-28.952-9.618-28.952-23.195v-0.274c0-14.741,11.405-23.541,30.508-23.541
		c11.16,0,22.259,2.671,30.79,7.371l-7.987,14.978c-7.504-3.789-16.491-6.27-22.939-6.27c-5.543,0-6.371,2.708-6.371,4.321v0.274
		c0,3.255,3.248,4.422,10.659,6.31c19.026,4.686,28.679,9.557,28.679,23.192v0.275C379.241,124.995,368.171,133.625,348.87,133.625z
		"/>
	<path fill="#3F70B0" stroke="#D8742D" stroke-width="3" stroke-miterlimit="10" d="M129.368,46.036
		c-7.701,0-13.967-6.266-13.967-13.967s6.266-13.967,13.967-13.967s13.967,6.266,13.967,13.967S137.069,46.036,129.368,46.036z"/>
</g>
</svg>
